<svg viewBox="0.0 0.0 240 240" xmlns="http://www.w3.org/2000/svg" fill="none" stroke="currentColor" stroke-width="2" stroke-linecap="round" stroke-linejoin="round">
  <path d="M 122.2 198.6C121.9 192.4 127.1 169.2 120.4 161.7C113.7 154.2 89.5 156.2 82 153.6C74.5 151 74.3 151.3 75.5 145.8C76.7 140.4 85.6 129 89.2 120.9C92.9 112.8 94.6 102.2 97.6 97.2C100.6 92.1 109.8 86.2 107.4 90.5C105.1 94.7 83.3 115.5 83.5 122.4C83.7 129.3 103.8 129.6 108.7 131.9C113.6 134.2 112.8 134.7 113.1 136.4C113.3 138.1 110.6 141.1 110.5 141.9C110.3 142.8 111.6 142 112.1 141.8C112.6 141.6 113.1 141.3 113.4 140.8C113.8 140.4 114.1 139.9 114.2 139.4C114.2 138.8 114.8 137.4 114 137.7C113.1 138 110.6 141.2 109 141.2C107.3 141.3 108.8 142.9 104 138C99.2 133.1 80.9 120.8 80.2 111.8C79.5 102.7 94.2 89.2 99.9 83.5C105.6 77.8 111.8 79.6 114.6 77.7C117.3 75.8 116.5 73.8 116.5 72.2C116.5 70.7 115 69.8 114.6 68.5C114.1 67.2 113.9 65.8 113.9 64.4C113.9 63 114.2 61.6 114.6 60.3C115 58.9 115.6 57.6 116.5 56.5C117.3 55.4 118.3 54.4 119.4 53.5C120.5 52.7 121.9 52.1 123.2 51.6C124.5 51.2 125.9 50.9 127.3 50.9C128.7 51 130.1 51.2 131.4 51.6C132.7 52.1 134.1 52.7 135.2 53.5C136.3 54.3 137.3 55.4 138.1 56.5C138.9 57.6 139.6 58.9 140.1 60.2C140.5 61.5 140.7 63 140.7 64.4C140.7 65.7 140.5 67.2 140 68.5C139.6 69.8 139 71.1 138.2 72.3C137.3 73.4 136.3 74.4 135.2 75.2C134.1 76 132.8 76.9 131.4 77.1C130.1 77.4 128.2 75.6 127.3 76.7C126.4 77.7 126 80.4 126 83.3C126.1 86.2 129.7 87.5 127.9 94C126 100.5 114.2 114.2 115.1 122.4C115.9 130.6 129.7 138.8 133.2 143.3C136.6 147.7 136.2 147.5 135.9 149.3C135.6 151 131.9 152.8 131.4 153.6C131 154.4 132.5 154 133 154C133.6 154 134.2 153.9 134.7 153.6C135.1 153.4 135.6 153 135.8 152.5C136.1 152 137.2 150.9 136.3 150.9C135.3 150.9 131.8 152.9 130.3 152.4C128.8 152 132.2 151.7 127.2 148.2C122.3 144.7 102.2 138.4 100.7 131.6C99.2 124.8 117.6 107.8 118.3 107.3C118.9 106.8 108.5 121.2 104.7 128.5C100.9 135.7 91.3 146.1 95.3 150.8C99.4 155.6 120.7 150.1 129 157C137.3 163.8 141.3 186 145.2 191.9C149.1 197.8 149.8 192.8 152.5 192.2C155.3 191.6 159.7 188.6 161.6 188.4C163.6 188.2 163.8 190.8 164.2 191.1C164.7 191.3 164.5 190.4 164.5 190.1C164.5 189.7 164.4 189.4 164.2 189.1C164 188.9 163.8 188.6 163.5 188.4C163.2 188.3 162.5 187.6 162.5 188.2C162.5 188.7 164.9 190 163.5 191.7"/>
  <path stroke="var(--accent)" d="M 163.5 191.7C162.1 193.5 158.2 197.3 154.4 198.6C150.6 199.9 146.3 205.2 140.7 199.7"/>
  <path d="M 140.7 199.7C135.1 194.2 129.8 173.4 120.8 165.4C111.7 157.5 91.8 154.6 86.2 152C80.7 149.4 81.1 149.9 87.3 149.8C93.5 149.7 116.4 144.2 123.4 151.2C130.3 158.2 127 184.6 129.2 191.5C131.3 198.5 133.1 193.1 136.2 192.9C139.4 192.7 145.8 190.2 148.1 190.3C150.5 190.4 149.7 193.1 150.1 193.4C150.5 193.8 150.5 192.9 150.6 192.6C150.7 192.3 150.6 191.9 150.5 191.6C150.4 191.3 150.2 191 150 190.8C149.7 190.5 149.3 190.3 149.1 190.3"/>
  <path stroke="var(--accent)" d="M 149.1 190.3C149.4 190.7 150.8 191.9 150.8 192.6C150.8 193.3 151 193.4 149 194.5C147 195.5 141.9 197.9 138.7 199.1C135.4 200.3 131.9 201.2 129.5 201.7C127 202.2 125.2 202.5 124 202C122.8 201.5 122.5 199.2 122.2 198.6"/>
  <path d="M -10 153.2C-0.4 153.5 29.8 152.6 47.7 155.2C65.5 157.7 87 162.9 97.3 168.5C107.6 174.1 104.6 183.2 109.3 188.6C114 194 117.6 198.4 125.3 201C133 203.6 134.5 203.8 155.3 204C176.1 204.2 234.2 202.3 250 202"/>
</svg>
